<svg width="25" height="24" viewBox="0 0 25 24" fill="none" xmlns="http://www.w3.org/2000/svg">
<path fill-rule="evenodd" clip-rule="evenodd" d="M23.7904 12C23.7904 18.0751 18.8656 23 12.7904 23C6.71529 23 1.79042 18.0751 1.79042 12C1.79042 5.92486 6.71529 0.999992 12.7904 0.999992C18.8656 0.999992 23.7904 5.92486 23.7904 12ZM24.7904 12C24.7904 18.6274 19.4178 24 12.7904 24C6.163 24 0.790419 18.6274 0.790419 12C0.790419 5.37258 6.163 -7.62939e-06 12.7904 -7.62939e-06C19.4178 -7.62939e-06 24.7904 5.37258 24.7904 12ZM9.2368 11.0864C10.0652 11.0864 10.7368 10.191 10.7368 9.08644C10.7368 7.98187 10.0652 7.08644 9.2368 7.08644C8.40838 7.08644 7.7368 7.98187 7.7368 9.08644C7.7368 10.191 8.40838 11.0864 9.2368 11.0864ZM16.3441 11.0864C17.1725 11.0864 17.8441 10.191 17.8441 9.08644C17.8441 7.98187 17.1725 7.08644 16.3441 7.08644C15.5156 7.08644 14.8441 7.98187 14.8441 9.08644C14.8441 10.191 15.5156 11.0864 16.3441 11.0864ZM5.83719 13.6039H6.5327H6.54479H6.55687H6.56894H6.58101H6.59306H6.60511H6.61716H6.6292H6.64123H6.65325H6.66527H6.67728H6.68928H6.70128H6.71326H6.72525H6.73722H6.74919H6.76116H6.77311H6.78507H6.79701H6.80895H6.82088H6.83281H6.84473H6.85664H6.86855H6.88045H6.89234H6.90423H6.91612H6.92799H6.93987H6.95173H6.96359H6.97545H6.9873H6.99914H7.01098H7.02281H7.03464H7.04646H7.05828H7.07009H7.0819H7.0937H7.10549H7.11728H7.12907H7.14085H7.15263H7.1644H7.17616H7.18793H7.19968H7.21143H7.22318H7.23492H7.24666H7.25839H7.27012H7.28185H7.29357H7.30528H7.317H7.3287H7.3404H7.3521H7.3638H7.37549H7.38718H7.39886H7.41054H7.42221H7.43388H7.44555H7.45721H7.46887H7.48053H7.49218H7.50383H7.51547H7.52711H7.53875H7.55039H7.56202H7.57365H7.58527H7.59689H7.60851H7.62012H7.63174H7.64335H7.65495H7.66656H7.67816H7.68975H7.70135H7.71294H7.72453H7.73611H7.7477H7.75928H7.77086H7.78243H7.79401H7.80558H7.81715H7.82872H7.84028H7.85184H7.8634H7.87496H7.88652H7.89807H7.90962H7.92117H7.93272H7.94427H7.95581H7.96735H7.97889H7.99043H8.00197H8.01351H8.02504H8.03658H8.04811H8.05964H8.07117H8.08269H8.09422H8.10575H8.11727H8.12879H8.14031H8.15183H8.16335H8.17487H8.18639H8.19791H8.20942H8.22094H8.23246H8.24397H8.25548H8.267H8.27851H8.29002H8.30153H8.31304H8.32455H8.33607H8.34758H8.35909H8.3706H8.38211H8.39362H8.40513H8.41664H8.42815H8.43966H8.45117H8.46268H8.47419H8.4857H8.49721H8.50872H8.52023H8.53175H8.54326H8.55477H8.56629H8.5778H8.58932H8.60083H8.61235H8.62387H8.63539H8.64691H8.65843H8.66995H8.68147H8.693H8.70452H8.71605H8.72758H8.73911H8.75064H8.76217H8.7737H8.78524H8.79677H8.80831H8.81985H8.83139H8.84294H8.85448H8.86603H8.87758H8.88913H8.90068H8.91223H8.92379H8.93535H8.94691H8.95847H8.97004H8.9816H8.99317H9.00474H9.01632H9.02789H9.03947H9.05106H9.06264H9.07423H9.08582H9.09741H9.109H9.1206H9.1322H9.14381H9.15541H9.16702H9.17863H9.19025H9.20187H9.21349H9.22512H9.23675H9.24838H9.26001H9.27165H9.28329H9.29494H9.30659H9.31824H9.3299H9.34156H9.35322H9.36489H9.37656H9.38824H9.39991H9.4116H9.42328H9.43498H9.44667H9.45837H9.47007H9.48178H9.49349H9.50521H9.51693H9.52866H9.54039H9.55212H9.56386H9.5756H9.58735H9.5991H9.61086H9.62262H9.63439H9.64616H9.65794H9.66972H9.68151H9.6933H9.7051H9.7169H9.7287H9.74052H9.75233H9.76416H9.77599H9.78782H9.79966H9.8115H9.82335H9.83521H9.84707H9.85894H9.87081H9.88269H9.89458H9.90647H9.91836H9.93027H9.94217H9.95409H9.96601H9.97794H9.98987H10.0018H10.0138H10.0257H10.0377H10.0496H10.0616H10.0736H10.0856H10.0976H10.1095H10.1216H10.1336H10.1456H10.1576H10.1696H10.1817H10.1937H10.2058H10.2178H10.2299H10.242H10.2541H10.2661H10.2782H10.2903H10.3025H10.3146H10.3267H10.3388H10.351H10.3631H10.3753H10.3874H10.3996H10.4118H10.424H10.4362H10.4484H10.4606H10.4728H10.485H10.4973H10.5095H10.5217H10.534H10.5463H10.5586H10.5708H10.5831H10.5954H10.6077H10.6201H10.6324H10.6447H10.6571H10.6694H10.6818H10.6941H10.7065H10.7189H10.7313H10.7437H10.7561H10.7686H10.781H10.7934H10.8059H10.8183H10.8308H10.8433H10.8558H10.8683H10.8808H10.8933H10.9058H10.9184H10.9309H10.9435H10.9561H10.9686H10.9812H10.9938H11.0064H11.019H11.0317H11.0443H11.0569H11.0696H11.0823H11.0949H11.1076H11.1203H11.133H11.1458H11.1585H11.1712H11.184H11.1967H11.2095H11.2223H11.2351H11.2479H11.2607H11.2735H11.2864H11.2992H11.3121H11.325H11.3378H11.3507H11.3636H11.3766H11.3895H11.4024H11.4154H11.4283H11.4413H11.4543H11.4673H11.4803H11.4933H11.5064H11.5194H11.5325H11.5455H11.5586H11.5717H11.5848H11.5979H11.611H11.6242H11.6373H11.6505H11.6637H11.6769H11.6901H11.7033H11.7165H11.7297H11.743H11.7563H11.7695H11.7828H11.7961H11.8094H11.8228H11.8361H11.8495H11.8628H11.8762H11.8896H11.903H11.9164H11.9299H11.9433H11.9568H11.9702H11.9837H11.9972H12.0107H12.0243H12.0378H12.0514H12.0649H12.0785H12.0921H12.1057H12.1193H12.133H12.1466H12.1603H12.174H12.1877H12.2014H12.2151H12.2288H12.2426H12.2563H12.2701H12.2839H12.2977H12.3115H12.3254H12.3392H12.3531H12.367H12.3809H12.3948H12.4087H12.4226H12.4366H12.4506H12.4645H12.4785H12.4926H12.5066H12.5206H12.5347H12.5488H12.5629H12.577H12.5911H12.6052H12.6194H12.6335H12.6477H12.6619H12.6761H12.6904H12.7046H12.7189H12.7332H12.7475H12.7618H12.7761H12.7904H12.8048H12.8191H12.8334H12.8477H12.862H12.8762H12.8905H12.9047H12.9189H12.9331H12.9473H12.9615H12.9756H12.9898H13.0039H13.018H13.0321H13.0462H13.0602H13.0743H13.0883H13.1023H13.1163H13.1303H13.1443H13.1582H13.1722H13.1861H13.2H13.2139H13.2278H13.2416H13.2555H13.2693H13.2832H13.297H13.3108H13.3245H13.3383H13.352H13.3658H13.3795H13.3932H13.4069H13.4206H13.4342H13.4479H13.4615H13.4752H13.4888H13.5024H13.5159H13.5295H13.5431H13.5566H13.5701H13.5836H13.5971H13.6106H13.6241H13.6376H13.651H13.6644H13.6779H13.6913H13.7047H13.718H13.7314H13.7448H13.7581H13.7714H13.7847H13.798H13.8113H13.8246H13.8379H13.8511H13.8644H13.8776H13.8908H13.904H13.9172H13.9304H13.9435H13.9567H13.9698H13.983H13.9961H14.0092H14.0223H14.0353H14.0484H14.0615H14.0745H14.0875H14.1006H14.1136H14.1266H14.1395H14.1525H14.1655H14.1784H14.1914H14.2043H14.2172H14.2301H14.243H14.2559H14.2688H14.2816H14.2945H14.3073H14.3201H14.333H14.3458H14.3586H14.3713H14.3841H14.3969H14.4096H14.4224H14.4351H14.4478H14.4605H14.4732H14.4859H14.4986H14.5113H14.5239H14.5366H14.5492H14.5618H14.5744H14.587H14.5996H14.6122H14.6248H14.6374H14.6499H14.6625H14.675H14.6875H14.7001H14.7126H14.7251H14.7376H14.75H14.7625H14.775H14.7874H14.7999H14.8123H14.8247H14.8371H14.8495H14.8619H14.8743H14.8867H14.8991H14.9114H14.9238H14.9361H14.9485H14.9608H14.9731H14.9854H14.9977H15.01H15.0223H15.0346H15.0469H15.0591H15.0714H15.0836H15.0958H15.1081H15.1203H15.1325H15.1447H15.1569H15.1691H15.1813H15.1934H15.2056H15.2177H15.2299H15.242H15.2542H15.2663H15.2784H15.2905H15.3026H15.3147H15.3268H15.3389H15.351H15.363H15.3751H15.3871H15.3992H15.4112H15.4233H15.4353H15.4473H15.4593H15.4713H15.4833H15.4953H15.5073H15.5193H15.5312H15.5432H15.5552H15.5671H15.5791H15.591H15.6029H15.6149H15.6268H15.6387H15.6506H15.6625H15.6744H15.6863H15.6982H15.71H15.7219H15.7338H15.7457H15.7575H15.7694H15.7812H15.793H15.8049H15.8167H15.8285H15.8403H15.8522H15.864H15.8758H15.8876H15.8994H15.9111H15.9229H15.9347H15.9465H15.9582H15.97H15.9818H15.9935H16.0053H16.017H16.0287H16.0405H16.0522H16.0639H16.0757H16.0874H16.0991H16.1108H16.1225H16.1342H16.1459H16.1576H16.1693H16.1809H16.1926H16.2043H16.216H16.2276H16.2393H16.251H16.2626H16.2743H16.2859H16.2976H16.3092H16.3209H16.3325H16.3441H16.3557H16.3674H16.379H16.3906H16.4022H16.4138H16.4255H16.4371H16.4487H16.4603H16.4719H16.4835H16.495H16.5066H16.5182H16.5298H16.5414H16.553H16.5645H16.5761H16.5877H16.5993H16.6108H16.6224H16.634H16.6455H16.6571H16.6686H16.6802H16.6917H16.7033H16.7148H16.7264H16.7379H16.7495H16.761H16.7726H16.7841H16.7956H16.8072H16.8187H16.8302H16.8418H16.8533H16.8648H16.8763H16.8879H16.8994H16.9109H16.9224H16.934H16.9455H16.957H16.9685H16.98H16.9915H17.0031H17.0146H17.0261H17.0376H17.0491H17.0606H17.0721H17.0837H17.0952H17.1067H17.1182H17.1297H17.1412H17.1527H17.1642H17.1757H17.1872H17.1988H17.2103H17.2218H17.2333H17.2448H17.2563H17.2678H17.2793H17.2908H17.3024H17.3139H17.3254H17.3369H17.3484H17.3599H17.3714H17.383H17.3945H17.406H17.4175H17.429H17.4405H17.4521H17.4636H17.4751H17.4866H17.4982H17.5097H17.5212H17.5328H17.5443H17.5558H17.5674H17.5789H17.5904H17.602H17.6135H17.6251H17.6366H17.6481H17.6597H17.6712H17.6828H17.6943H17.7059H17.7175H17.729H17.7406H17.7521H17.7637H17.7753H17.7869H17.7984H17.81H17.8216H17.8332H17.8447H17.8563H17.8679H17.8795H17.8911H17.9027H17.9143H17.9259H17.9375H17.9491H17.9607H17.9724H17.984H17.9956H18.0072H18.0188H18.0305H18.0421H18.0538H18.0654H18.077H18.0887H18.1003H18.112H18.1237H18.1353H18.147H18.1587H18.1703H18.182H18.1937H18.2054H18.2171H18.2288H18.2405H18.2522H18.2639H18.2756H18.2873H18.299H18.3107H18.3225H18.3342H18.3459H18.3577H18.3694H18.3812H18.3929H18.4047H18.4165H18.4282H18.44H18.4518H18.4636H18.4754H18.4872H18.499H18.5108H18.5226H18.5344H18.5462H18.5581H18.5699H18.5817H18.5936H18.6054H18.6173H18.6291H18.641H18.6529H18.6647H18.6766H18.6885H18.7004H18.7123H18.7242H18.7361H18.7481H18.76H18.7719H18.7839H18.7958H18.8077H18.8197H18.8317H18.8436H18.8556H18.8676H18.8796H18.8916H18.9036H18.9156H18.9276H18.9396H18.9517H18.9637H18.9757H18.9878H18.9999H19.0119H19.024H19.0361H19.0482H19.7437L19.5221 14.2631C18.5774 17.0742 15.9212 19.1001 12.7904 19.1001C9.65969 19.1001 7.00344 17.0742 6.05875 14.2631L5.83719 13.6039ZM7.27221 14.6039C8.2493 16.6709 10.3535 18.1001 12.7904 18.1001C15.2274 18.1001 17.3316 16.6709 18.3086 14.6039H18.299H18.2873H18.2756H18.2639H18.2522H18.2405H18.2288H18.2171H18.2054H18.1937H18.182H18.1703H18.1587H18.147H18.1353H18.1237H18.112H18.1003H18.0887H18.077H18.0654H18.0538H18.0421H18.0305H18.0188H18.0072H17.9956H17.984H17.9724H17.9607H17.9491H17.9375H17.9259H17.9143H17.9027H17.8911H17.8795H17.8679H17.8563H17.8447H17.8332H17.8216H17.81H17.7984H17.7869H17.7753H17.7637H17.7521H17.7406H17.729H17.7175H17.7059H17.6943H17.6828H17.6712H17.6597H17.6481H17.6366H17.6251H17.6135H17.602H17.5904H17.5789H17.5674H17.5558H17.5443H17.5328H17.5212H17.5097H17.4982H17.4866H17.4751H17.4636H17.4521H17.4405H17.429H17.4175H17.406H17.3945H17.383H17.3714H17.3599H17.3484H17.3369H17.3254H17.3139H17.3024H17.2908H17.2793H17.2678H17.2563H17.2448H17.2333H17.2218H17.2103H17.1988H17.1872H17.1757H17.1642H17.1527H17.1412H17.1297H17.1182H17.1067H17.0952H17.0837H17.0721H17.0606H17.0491H17.0376H17.0261H17.0146H17.0031H16.9915H16.98H16.9685H16.957H16.9455H16.934H16.9224H16.9109H16.8994H16.8879H16.8763H16.8648H16.8533H16.8418H16.8302H16.8187H16.8072H16.7956H16.7841H16.7726H16.761H16.7495H16.7379H16.7264H16.7148H16.7033H16.6917H16.6802H16.6686H16.6571H16.6455H16.634H16.6224H16.6108H16.5993H16.5877H16.5761H16.5645H16.553H16.5414H16.5298H16.5182H16.5066H16.495H16.4835H16.4719H16.4603H16.4487H16.4371H16.4255H16.4138H16.4022H16.3906H16.379H16.3674H16.3557H16.3441H16.3325H16.3209H16.3092H16.2976H16.2859H16.2743H16.2626H16.251H16.2393H16.2276H16.216H16.2043H16.1926H16.1809H16.1693H16.1576H16.1459H16.1342H16.1225H16.1108H16.0991H16.0874H16.0757H16.0639H16.0522H16.0405H16.0287H16.017H16.0053H15.9935H15.9818H15.97H15.9582H15.9465H15.9347H15.9229H15.9111H15.8994H15.8876H15.8758H15.864H15.8522H15.8403H15.8285H15.8167H15.8049H15.793H15.7812H15.7694H15.7575H15.7457H15.7338H15.7219H15.71H15.6982H15.6863H15.6744H15.6625H15.6506H15.6387H15.6268H15.6149H15.6029H15.591H15.5791H15.5671H15.5552H15.5432H15.5312H15.5193H15.5073H15.4953H15.4833H15.4713H15.4593H15.4473H15.4353H15.4233H15.4112H15.3992H15.3871H15.3751H15.363H15.351H15.3389H15.3268H15.3147H15.3026H15.2905H15.2784H15.2663H15.2542H15.242H15.2299H15.2177H15.2056H15.1934H15.1813H15.1691H15.1569H15.1447H15.1325H15.1203H15.1081H15.0958H15.0836H15.0714H15.0591H15.0469H15.0346H15.0223H15.01H14.9977H14.9854H14.9731H14.9608H14.9485H14.9361H14.9238H14.9114H14.8991H14.8867H14.8743H14.8619H14.8495H14.8371H14.8247H14.8123H14.7999H14.7874H14.775H14.7625H14.75H14.7376H14.7251H14.7126H14.7001H14.6875H14.675H14.6625H14.6499H14.6374H14.6248H14.6122H14.5996H14.587H14.5744H14.5618H14.5492H14.5366H14.5239H14.5113H14.4986H14.4859H14.4732H14.4605H14.4478H14.4351H14.4224H14.4096H14.3969H14.3841H14.3713H14.3586H14.3458H14.333H14.3201H14.3073H14.2945H14.2816H14.2688H14.2559H14.243H14.2301H14.2172H14.2043H14.1914H14.1784H14.1655H14.1525H14.1395H14.1266H14.1136H14.1006H14.0875H14.0745H14.0615H14.0484H14.0353H14.0223H14.0092H13.9961H13.983H13.9698H13.9567H13.9435H13.9304H13.9172H13.904H13.8908H13.8776H13.8644H13.8511H13.8379H13.8246H13.8113H13.798H13.7847H13.7714H13.7581H13.7448H13.7314H13.718H13.7047H13.6913H13.6779H13.6644H13.651H13.6376H13.6241H13.6106H13.5971H13.5836H13.5701H13.5566H13.5431H13.5295H13.5159H13.5024H13.4888H13.4752H13.4615H13.4479H13.4342H13.4206H13.4069H13.3932H13.3795H13.3658H13.352H13.3383H13.3245H13.3108H13.297H13.2832H13.2693H13.2555H13.2416H13.2278H13.2139H13.2H13.1861H13.1722H13.1582H13.1443H13.1303H13.1163H13.1023H13.0883H13.0743H13.0602H13.0462H13.0321H13.018H13.0039H12.9898H12.9756H12.9615H12.9473H12.9331H12.9189H12.9047H12.8905H12.8762H12.862H12.8477H12.8334H12.8191H12.8048H12.7904H12.7761H12.7618H12.7475H12.7332H12.7189H12.7046H12.6904H12.6761H12.6619H12.6477H12.6335H12.6194H12.6052H12.5911H12.577H12.5629H12.5488H12.5347H12.5206H12.5066H12.4926H12.4785H12.4645H12.4506H12.4366H12.4226H12.4087H12.3948H12.3809H12.367H12.3531H12.3392H12.3254H12.3115H12.2977H12.2839H12.2701H12.2563H12.2426H12.2288H12.2151H12.2014H12.1877H12.174H12.1603H12.1466H12.133H12.1193H12.1057H12.0921H12.0785H12.0649H12.0514H12.0378H12.0243H12.0107H11.9972H11.9837H11.9702H11.9568H11.9433H11.9299H11.9164H11.903H11.8896H11.8762H11.8628H11.8495H11.8361H11.8228H11.8094H11.7961H11.7828H11.7695H11.7563H11.743H11.7297H11.7165H11.7033H11.6901H11.6769H11.6637H11.6505H11.6373H11.6242H11.611H11.5979H11.5848H11.5717H11.5586H11.5455H11.5325H11.5194H11.5064H11.4933H11.4803H11.4673H11.4543H11.4413H11.4283H11.4154H11.4024H11.3895H11.3766H11.3636H11.3507H11.3378H11.325H11.3121H11.2992H11.2864H11.2735H11.2607H11.2479H11.2351H11.2223H11.2095H11.1967H11.184H11.1712H11.1585H11.1458H11.133H11.1203H11.1076H11.0949H11.0823H11.0696H11.0569H11.0443H11.0317H11.019H11.0064H10.9938H10.9812H10.9686H10.9561H10.9435H10.9309H10.9184H10.9058H10.8933H10.8808H10.8683H10.8558H10.8433H10.8308H10.8183H10.8059H10.7934H10.781H10.7686H10.7561H10.7437H10.7313H10.7189H10.7065H10.6941H10.6818H10.6694H10.6571H10.6447H10.6324H10.6201H10.6077H10.5954H10.5831H10.5708H10.5586H10.5463H10.534H10.5217H10.5095H10.4973H10.485H10.4728H10.4606H10.4484H10.4362H10.424H10.4118H10.3996H10.3874H10.3753H10.3631H10.351H10.3388H10.3267H10.3146H10.3025H10.2903H10.2782H10.2661H10.2541H10.242H10.2299H10.2178H10.2058H10.1937H10.1817H10.1696H10.1576H10.1456H10.1336H10.1216H10.1095H10.0976H10.0856H10.0736H10.0616H10.0496H10.0377H10.0257H10.0138H10.0018H9.98987H9.97794H9.96601H9.95409H9.94217H9.93027H9.91836H9.90647H9.89458H9.88269H9.87081H9.85894H9.84707H9.83521H9.82335H9.8115H9.79966H9.78782H9.77599H9.76416H9.75233H9.74052H9.7287H9.7169H9.7051H9.6933H9.68151H9.66972H9.65794H9.64616H9.63439H9.62262H9.61086H9.5991H9.58735H9.5756H9.56386H9.55212H9.54039H9.52866H9.51693H9.50521H9.49349H9.48178H9.47007H9.45837H9.44667H9.43498H9.42328H9.4116H9.39991H9.38824H9.37656H9.36489H9.35322H9.34156H9.3299H9.31824H9.30659H9.29494H9.28329H9.27165H9.26001H9.24838H9.23675H9.22512H9.21349H9.20187H9.19025H9.17863H9.16702H9.15541H9.14381H9.1322H9.1206H9.109H9.09741H9.08582H9.07423H9.06264H9.05106H9.03947H9.02789H9.01632H9.00474H8.99317H8.9816H8.97004H8.95847H8.94691H8.93535H8.92379H8.91223H8.90068H8.88913H8.87758H8.86603H8.85448H8.84294H8.83139H8.81985H8.80831H8.79677H8.78524H8.7737H8.76217H8.75064H8.73911H8.72758H8.71605H8.70452H8.693H8.68147H8.66995H8.65843H8.64691H8.63539H8.62387H8.61235H8.60083H8.58932H8.5778H8.56629H8.55477H8.54326H8.53175H8.52023H8.50872H8.49721H8.4857H8.47419H8.46268H8.45117H8.43966H8.42815H8.41664H8.40513H8.39362H8.38211H8.3706H8.35909H8.34758H8.33607H8.32455H8.31304H8.30153H8.29002H8.27851H8.267H8.25548H8.24397H8.23246H8.22094H8.20942H8.19791H8.18639H8.17487H8.16335H8.15183H8.14031H8.12879H8.11727H8.10575H8.09422H8.08269H8.07117H8.05964H8.04811H8.03658H8.02504H8.01351H8.00197H7.99043H7.97889H7.96735H7.95581H7.94427H7.93272H7.92117H7.90962H7.89807H7.88652H7.87496H7.8634H7.85184H7.84028H7.82872H7.81715H7.80558H7.79401H7.78243H7.77086H7.75928H7.7477H7.73611H7.72453H7.71294H7.70135H7.68975H7.67816H7.66656H7.65495H7.64335H7.63174H7.62012H7.60851H7.59689H7.58527H7.57365H7.56202H7.55039H7.53875H7.52711H7.51547H7.50383H7.49218H7.48053H7.46887H7.45721H7.44555H7.43388H7.42221H7.41054H7.39886H7.38718H7.37549H7.3638H7.3521H7.3404H7.3287H7.317H7.30528H7.29357H7.28185H7.27221Z" fill="#D9D9D9"/>
</svg>
